<svg width="235" height="41" viewBox="0 0 235 41" fill="none" xmlns="http://www.w3.org/2000/svg">
<path d="M26.167 32.0115C23.7956 33.514 21.2306 34.2648 18.4729 34.2648C16.0825 34.2648 13.9956 33.7135 12.213 32.608C10.4295 31.5044 9.115 29.9931 8.26964 28.0739C7.42327 26.1558 7.18473 24.0008 7.55202 21.6119C7.88338 19.223 8.74671 17.069 10.144 15.1498C11.5413 13.2317 13.2779 11.7203 15.3559 10.6158C17.4329 9.51127 19.6666 8.95901 22.057 8.95901C23.8954 8.95901 25.5682 9.30294 27.0762 9.99081C28.5833 10.6787 29.8429 11.6378 30.8539 12.8681C31.865 14.0994 32.5367 15.5292 32.867 17.1584H40.4234C40.2029 14.2625 39.3295 11.683 37.8035 9.41989C36.2774 7.15778 34.2464 5.3929 31.7093 4.12525C29.1722 2.85859 26.2858 2.22476 23.05 2.22476C19.2993 2.22476 15.7691 3.07576 12.4605 4.77676C9.15193 6.47875 6.41222 8.80473 4.24242 11.7547C2.07262 14.7057 0.731214 17.9917 0.216211 21.6109C-0.298793 25.2311 0.106426 28.5171 1.42987 31.4671C2.75331 34.4181 4.82131 36.7441 7.63487 38.4451C10.4474 40.147 13.7291 40.9971 17.4798 40.9971C20.7146 40.9971 23.7856 40.3632 26.69 39.0966C29.5944 37.8299 32.1315 36.065 34.3013 33.8019C36.4701 31.5398 38.1069 28.9603 39.2098 26.0634H31.5985C30.3479 28.526 28.5374 30.508 26.166 32.0095L26.167 32.0115Z" fill="black"/>
<path d="M65.8782 13.3319C64.3521 12.4445 62.4867 12.0014 60.28 12.0014C58.0733 12.0014 56.1061 12.4809 54.2686 13.44C52.8524 14.179 51.5828 15.1813 50.45 16.4342L52.6138 1.24897H45.8849L40.3146 40.3475H47.0436L49.2953 24.5471C49.6356 22.795 50.464 21.3623 51.7874 20.2548C53.2576 19.0245 55.0411 18.4094 57.1371 18.4094C58.4605 18.4094 59.5814 18.6806 60.5016 19.224C61.4208 19.7664 62.0736 20.5368 62.4598 21.5313C62.8461 22.5277 62.9468 23.6765 62.7632 24.9795L60.5575 40.3475H67.2306L69.7677 22.8078C70.0621 20.6725 69.8685 18.7808 69.1888 17.1329C68.5081 15.4859 67.4052 14.2192 65.8792 13.3319H65.8782Z" fill="black"/>
<path d="M120.352 12.2185C118.403 12.2185 116.555 12.7433 114.809 13.7928C113.532 14.5612 112.37 15.5665 111.319 16.7988L111.914 12.6529H105.185L102.071 34.3739H94.4639L97.5639 12.6529H75.3918L74.4546 18.8437H89.9965L89.4266 22.6997H82.0659C80.1536 22.6997 78.379 23.0977 76.7431 23.8946C75.1063 24.6916 73.746 25.7863 72.662 27.1797C71.5771 28.5741 70.9244 30.1218 70.7038 31.8228C70.4463 33.5602 70.6579 35.1266 71.3386 36.52C72.0183 37.9134 73.0663 39.0091 74.4825 39.8051C75.8978 40.601 77.5436 41 79.419 41C81.2943 41 83.0679 40.602 84.7417 39.8051C86.0531 39.1811 87.171 38.3605 88.1092 37.3582L87.692 40.3485H107.945L110.031 25.802C110.331 24.6876 110.782 23.6873 111.392 22.8088C112.22 21.6139 113.313 20.6823 114.674 20.0121C116.033 19.3429 117.596 19.0068 119.362 19.0068L120.355 12.2195L120.352 12.2185ZM88.0632 31.9142C87.8746 32.5225 87.5522 33.0816 87.0841 33.5857C86.4953 34.2196 85.7238 34.6991 84.7676 35.0254C83.8115 35.3516 82.7266 35.5137 81.5139 35.5137C80.6676 35.5137 79.932 35.3604 79.3072 35.0519C78.6814 34.7453 78.2133 34.2923 77.9009 33.6948C77.5875 33.0973 77.4677 32.4547 77.5416 31.7668C77.6524 31.0436 77.9558 30.3921 78.4518 29.8123C78.9479 29.2335 79.5637 28.7903 80.2993 28.4817C81.0349 28.1742 81.8064 28.0199 82.6158 28.0199H88.6391L88.0632 31.9142Z" fill="black"/>
<path d="M126.861 8.30848C128.075 8.30848 129.14 7.9105 130.06 7.11355C130.978 6.31758 131.512 5.32117 131.66 4.12722C131.844 2.96865 131.586 1.99187 130.887 1.19492C130.188 0.398956 129.233 0 128.019 0C126.805 0 125.747 0.398956 124.848 1.19492C123.946 1.99187 123.405 2.96963 123.221 4.12722C123.038 5.32215 123.295 6.31758 123.994 7.11355C124.691 7.9105 125.648 8.30848 126.862 8.30848H126.861Z" fill="black"/>
<path d="M118.919 40.3475H125.647L129.619 12.6529H122.889L118.919 40.3475Z" fill="black"/>
<path d="M147.929 13.1413C146.531 12.3807 144.896 12.0014 143.021 12.0014C141.256 12.0014 139.575 12.3266 137.975 12.9791C136.375 13.6306 135.042 14.6074 133.975 15.9114C132.908 17.2144 132.229 18.7346 131.934 20.473C131.567 22.9699 132.081 24.8714 133.478 26.1744C134.876 27.4775 136.788 28.4375 139.214 29.0517C140.685 29.4506 141.797 29.939 142.552 30.5178C143.305 31.0976 143.627 31.8395 143.517 32.7446C143.407 33.5052 142.993 34.1478 142.276 34.6726C141.56 35.1983 140.74 35.4597 139.822 35.4597C138.792 35.4597 137.983 35.1433 137.396 34.5094C136.807 33.8756 136.586 33.0885 136.733 32.1471H129.949C129.729 33.74 129.949 35.215 130.611 36.5731C131.274 37.9301 132.34 39.0071 133.811 39.8041C135.281 40.6001 136.973 40.999 138.885 40.999C140.797 40.999 142.58 40.6374 144.235 39.9132C145.888 39.1899 147.277 38.1758 148.399 36.8718C149.519 35.5688 150.191 34.0122 150.412 32.2012C150.743 29.8123 150.246 27.957 148.922 26.6353C147.599 25.3146 145.705 24.3467 143.242 23.7295C141.661 23.3316 140.503 22.8432 139.767 22.2634C139.032 21.6856 138.7 20.925 138.774 19.9826C138.885 19.3311 139.27 18.7612 139.933 18.2728C140.595 17.7844 141.329 17.5397 142.139 17.5397C143.094 17.5397 143.829 17.8296 144.344 18.4094C144.859 18.9891 145.042 19.677 144.896 20.473H151.735C151.919 18.9528 151.68 17.5397 151.018 16.2377C150.356 14.9346 149.327 13.9028 147.929 13.1422V13.1413Z" fill="black"/>
<path d="M190.452 12.0014C187.29 12.0014 184.524 12.9791 182.152 14.9337C181.381 15.5694 180.683 16.2996 180.045 17.1044C179.73 16.2642 179.287 15.5016 178.705 14.8246C177.086 12.9428 174.715 12.0014 171.59 12.0014C168.465 12.0014 165.863 13.0056 163.564 15.0152C163.214 15.3208 162.884 15.653 162.561 15.9979L163.041 12.6529H156.312L152.341 40.3475H159.069L161.467 23.6244C161.794 22.1956 162.517 21.0075 163.647 20.0652C164.97 18.9606 166.588 18.4084 168.501 18.4084C170.228 18.4084 171.553 18.943 172.472 20.0101C173.391 21.0783 173.741 22.4992 173.52 24.273L171.203 40.3465H177.878L180.293 23.5998C180.647 22.1504 181.384 20.9614 182.511 20.0367C183.834 18.9508 185.433 18.4084 187.309 18.4084C189.074 18.4084 190.415 18.943 191.335 20.0101C192.254 21.0783 192.585 22.4992 192.329 24.273L190.012 40.3465H196.74L199.277 22.3725C199.754 19.223 199.175 16.7074 197.54 14.8246C195.904 12.9428 193.541 12.0014 190.453 12.0014H190.452Z" fill="black"/>
<path d="M223.919 34.3739L227.019 12.6529H204.847L203.91 18.8437H219.452L218.882 22.6997H211.521C209.609 22.6997 207.835 23.0977 206.199 23.8946C204.563 24.6916 203.202 25.7863 202.118 27.1797C201.034 28.5741 200.381 30.1218 200.16 31.8228C199.903 33.5602 200.113 35.1266 200.794 36.52C201.474 37.9134 202.522 39.0091 203.937 39.8051C205.352 40.601 206.998 41 208.874 41C210.749 41 212.522 40.602 214.196 39.8051C215.508 39.1811 216.626 38.3605 217.565 37.3582L217.148 40.3485H234.173L235 34.3748H223.919V34.3739ZM217.519 31.9162C217.33 32.5235 217.008 33.0826 216.54 33.5857C215.951 34.2196 215.178 34.6991 214.223 35.0254C213.267 35.3516 212.182 35.5137 210.969 35.5137C210.123 35.5137 209.388 35.3604 208.764 35.0519C208.138 34.7453 207.669 34.2923 207.357 33.6948C207.044 33.0973 206.924 32.4547 206.999 31.7668C207.109 31.0436 207.413 30.3921 207.909 29.8123C208.405 29.2335 209.021 28.7903 209.757 28.4817C210.492 28.1742 211.264 28.0199 212.073 28.0199H218.096L217.52 31.9162H217.519Z" fill="black"/>
</svg>
